<svg width="58" height="58" viewBox="0 0 58 58" fill="none" xmlns="http://www.w3.org/2000/svg">
<path d="M50.6134 36.8094C58.3871 40.2054 59.0077 51.1745 51.5898 55.4333C46.5928 58.3022 40.1336 56.5628 37.2983 51.5752C34.1974 46.1209 36.4947 39.3055 42.1485 36.762L42.1448 17.6268C42.5991 16.302 43.5309 15.1334 44.1449 13.8644L44.3456 13.6934L48.4619 13.7212C48.6848 13.8291 50.1787 16.7938 50.5595 17.293C50.8865 17.7225 52.542 19.1412 52.6228 19.4117C52.6785 19.5986 52.6785 21.3249 52.6228 21.5118C52.5429 21.7796 51.7858 22.25 51.6678 22.5084C51.5192 22.8356 51.7198 23.294 51.5712 23.6203C51.4365 23.9159 50.6682 24.3361 50.5995 24.6931C50.5595 24.8995 50.5623 26.0718 50.6162 26.2522C50.6961 26.5199 51.4532 26.9903 51.5712 27.2488C51.7105 27.5546 51.5452 27.9832 51.6381 28.2974C51.7143 28.5531 52.4082 28.99 52.5531 29.241C52.6758 29.4539 52.6943 30.656 52.6219 30.9005C52.542 31.1682 51.7849 31.6386 51.6669 31.8971C51.5285 32.2001 51.6901 32.6259 51.5991 32.9448C51.4959 33.3018 50.6887 33.8531 50.6162 34.0994C50.5614 34.2844 50.541 36.6932 50.6125 36.8085L50.6134 36.8094ZM46.0233 46.8888C42.665 47.3276 43.162 52.6926 46.9997 52.0484C49.9427 51.5538 49.4884 46.436 46.0233 46.8888Z" stroke="black" stroke-width="2" stroke-miterlimit="10"/>
<path d="M39.4507 26.2262H3.26684C2.3778 26.2262 1.28067 25.0381 1.12553 24.1856C0.94438 23.1881 0.987113 20.189 1.08001 19.1115C1.17848 17.9671 2.24774 16.6516 3.45263 16.6516H39.3114C39.3216 16.6516 39.4507 16.7808 39.4507 16.7911V26.2271V26.2262Z" stroke="black" stroke-width="2" stroke-miterlimit="10"/>
<path d="M19.106 29.0151V48.9099H6.05383C5.39703 48.9099 4.24231 47.5572 4.24231 46.9111V29.0151H19.106Z" stroke="black" stroke-width="2" stroke-miterlimit="10"/>
<path d="M36.2922 37.8469C36.1194 38.0542 35.8667 38.2708 35.6967 38.506C33.4932 41.5377 32.7333 45.2052 33.3195 48.9099H24.6799V29.0151H39.3579V35.1044C38.5831 35.6129 37.891 36.1856 37.2212 36.8243C36.8106 37.2157 36.6406 37.4286 36.2922 37.8469Z" stroke="black" stroke-width="2" stroke-miterlimit="10"/>
<path d="M20.5923 13.8153C20.5552 13.9362 20.3805 13.9464 20.2718 13.9594C18.765 14.136 15.7114 14.0514 14.1368 13.9538C4.84606 13.3784 6.2386 0.269209 14.7741 1.04455C17.588 1.3002 20.5923 4.01202 20.5923 6.93581V13.8153Z" stroke="black" stroke-width="2" stroke-miterlimit="10"/>
<path d="M23.1935 13.9546V6.56378C23.1935 4.4581 25.62 1.95081 27.5383 1.3363C33.5414 -0.58717 38.4975 6.21237 34.751 11.3432C32.042 15.0544 27.1482 13.6999 23.1935 13.9546Z" stroke="black" stroke-width="2" stroke-miterlimit="10"/>
<path d="M37.2211 36.8242C37.2954 37.2175 36.6526 37.7883 36.2921 37.8468C36.6405 37.4285 36.8105 37.2156 37.2211 36.8242Z" stroke="black" stroke-width="2" stroke-miterlimit="10"/>
<path d="M46.0233 46.8889C49.4884 46.4362 49.9427 51.554 46.9996 52.0485C43.162 52.6937 42.665 47.3277 46.0233 46.8889Z" stroke="black" stroke-width="2" stroke-miterlimit="10"/>
</svg>
